<svg width="11" height="12" viewBox="0 0 11 12" fill="none" xmlns="http://www.w3.org/2000/svg">
<path d="M2.5 11.5C3 12.4998 5.5 6.5 5.5 6.5C5.5 6.5 7.5 11.0002 8 11.5C8.5 11.9998 11 2.9998 10.5 3C10 3.0002 8.5 4 8.5 4L7.5 6.5C7.5 6.5 6 3.0002 5.5 3C5 2.9998 3.5 5.5 3.5 5.5L4 8L3 8.5L2.25555 10.0897C2.40454 10.9456 2.5 11.5 2.5 11.5Z" fill="#3CE900"/>
<path d="M3.5 5.5C3.5 5.5 5 2.9998 5.5 3C6 3.0002 7.5 6.5 7.5 6.5L8.5 4C8.5 4 10 3.0002 10.5 3C11 2.9998 8.5 11.9998 8 11.5C7.5 11.0002 5.5 6.5 5.5 6.5C5.5 6.5 3 12.4998 2.5 11.5C2.5 11.5 2.40454 10.9456 2.25555 10.0897M3.5 5.5C3.5 5.5 3 1.56612 3 1.06612C3 0.566116 1 3.06612 1 3.06612C1.3965 5.18078 1.94347 8.29673 2.25555 10.0897M3.5 5.5L4 8L3 8.5L2.25555 10.0897" stroke="#3CE900" stroke-width="0.5"/>
</svg>
